<?xml version="1.0" encoding="UTF-8"?>
<svg version="1.1" xmlns="http://www.w3.org/2000/svg" width="512" height="512">
<path d="M0 0 C2.69061255 2.06498318 5.29457702 4.21846292 7.86694336 6.4284668 C8.38240723 6.8709375 8.89787109 7.3134082 9.42895508 7.76928711 C34.32387635 29.39738345 51.97710982 57.3066221 66.86694336 86.4284668 C67.57197998 87.79962646 67.57197998 87.79962646 68.29125977 89.19848633 C109.22594051 169.57218548 133.62858762 266.50285018 142.86694336 370.4284668 C142.88740723 371.24718262 142.90787109 372.06589844 142.92895508 372.90942383 C143.62724087 404.57466471 141.37298021 440.01863238 118.87084961 464.5847168 C107.2398279 475.28616367 93.62145723 478.97147684 78.23413086 478.70581055 C60.99573703 477.95550367 48.20573845 466.16540043 36.86694336 454.3659668 C30.88966802 447.6240478 26.31951428 440.22719184 21.86694336 432.4284668 C21.20758789 431.28039551 21.20758789 431.28039551 20.53491211 430.10913086 C-4.13305664 386.58473931 -4.13305664 386.58473931 -4.13305664 367.4284668 C-5.29321289 367.63342773 -6.45336914 367.83838867 -7.64868164 368.04956055 C-33.9127306 372.6173439 -59.93482588 372.85866925 -86.03149414 367.0144043 C-88.84234601 366.48338694 -91.28844284 366.38329508 -94.13305664 366.4284668 C-94.62950684 367.72373291 -94.62950684 367.72373291 -95.13598633 369.04516602 C-128.82908369 456.61707391 -128.82908369 456.61707391 -160.13305664 473.4284668 C-171.47152498 478.28019385 -187.69720915 480.10603137 -199.57055664 476.1159668 C-214.7821283 468.56336828 -223.7879606 452.87809254 -229.13305664 437.4284668 C-232.54573633 426.62398845 -234.95471373 415.70493438 -236.13305664 404.4284668 C-236.2993457 403.00727539 -236.2993457 403.00727539 -236.46899414 401.55737305 C-243.56193321 329.38192547 -220.32852514 254.15875131 -198.13305664 186.4284668 C-197.91262695 185.7551532 -197.69219727 185.0818396 -197.46508789 184.38812256 C-174.88282228 115.57422814 -141.42749436 25.43370854 -72.88305664 -9.5090332 C-48.24593836 -21.15467217 -21.61956423 -15.87134111 0 0 Z M-81.34008789 24.3112793 C-83.93382811 27.02043184 -85.09866572 28.84382111 -85.32055664 32.6159668 C-83.82261025 36.16373456 -82.46364246 37.50412832 -79.13305664 39.4284668 C-71.59262791 40.32238094 -66.93050247 35.66567105 -61.13305664 31.4284668 C-60.43696289 30.95538086 -59.74086914 30.48229492 -59.02368164 29.99487305 C-56.25448083 27.98390579 -55.21453874 26.81958089 -54.50805664 23.4284668 C-55.29426582 19.65466273 -56.25898871 18.00775853 -59.13305664 15.4284668 C-68.11979244 13.05726783 -74.74762789 18.68726917 -81.34008789 24.3112793 Z M-105.13305664 49.4284668 C-118.55005577 63.54305687 -127.98509186 82.400786 -137.13305664 99.4284668 C-137.56924316 100.23380859 -138.00542969 101.03915039 -138.45483398 101.86889648 C-149.04660526 118.7549439 -149.04660526 118.7549439 -152.13305664 137.4284668 C-150.78004384 140.03161674 -150.78004384 140.03161674 -148.13305664 141.4284668 C-145.32836709 142.03768215 -142.88568855 142.2940405 -140.13305664 141.4284668 C-136.79262655 137.75223535 -134.64007494 133.74909512 -132.55883789 129.28393555 C-131.88909695 127.87816517 -131.21933715 126.47240378 -130.54956055 125.06665039 C-130.20580383 124.3388739 -129.86204712 123.61109741 -129.50787354 122.86126709 C-119.47812709 101.66251487 -108.7548737 81.44390559 -93.84790039 63.2097168 C-91.77925479 59.85464693 -91.27087893 57.35180787 -91.13305664 53.4284668 C-93.24520718 50.65249752 -94.9715744 48.9729116 -98.13305664 47.4909668 C-100.96365953 47.40251046 -102.59801486 48.14791706 -105.13305664 49.4284668 Z M-57.13305664 161.4284668 C-60.70346331 166.43938136 -63.24390383 171.52572 -65.13305664 177.3659668 C-65.38087891 178.12031006 -65.62870117 178.87465332 -65.8840332 179.65185547 C-69.2368394 190.35364459 -71.15421396 201.40743986 -73.13305664 212.4284668 C-73.26728027 213.14502441 -73.40150391 213.86158203 -73.53979492 214.59985352 C-75.57223207 225.46524534 -77.3744008 236.38215211 -71.61352539 246.33862305 C-66.95439994 252.91548878 -60.6584373 255.43288305 -53.00805664 257.1159668 C-42.00992362 258.00291301 -32.51115833 258.64958763 -23.38305664 251.8659668 C-18.44729047 247.23515644 -16.38700421 241.84093473 -15.88818359 235.13793945 C-15.84509057 225.90853713 -16.88611022 217.30878077 -18.75805664 208.2409668 C-18.89244141 207.57336334 -19.02682617 206.90575989 -19.1652832 206.21792603 C-23.82352264 178.70609986 -23.82352264 178.70609986 -40.13305664 157.4284668 C-46.405434 154.29227812 -52.79914953 156.18488566 -57.13305664 161.4284668 Z M4.76147461 243.57299805 C2.72005325 246.64986199 1.96372207 249.10125877 1.11694336 252.6784668 C-1.23144161 260.67200796 -4.86480534 265.61389529 -11.82836914 270.20581055 C-18.37017781 273.77327687 -24.76196297 275.45187792 -32.10180664 276.5925293 C-35.59005224 277.55449393 -36.97033098 278.55520537 -39.13305664 281.4284668 C-39.91688421 284.19618897 -39.77470247 286.63272427 -39.13305664 289.4284668 C-36.40064194 292.95416319 -34.60645327 293.36835294 -30.19555664 293.9284668 C-14.7435123 293.15715011 -0.48838424 285.67398922 9.86694336 274.4284668 C15.77648896 266.61140964 19.68137996 257.27767027 19.27709961 247.34643555 C18.9572579 245.14700145 18.9572579 245.14700145 16.80444336 242.8659668 C12.28113232 240.65243161 8.51542525 239.74940083 4.76147461 243.57299805 Z " fill="#8A3ED1" transform="translate(303.133056640625,24.571533203125)"/>
</svg>
